<?xml version="1.0" encoding="utf-8"?>
<svg viewBox="0 0 500 500" xmlns="http://www.w3.org/2000/svg">
  <rect class="a" height="499.544" rx="173.841" style="opacity: 0.9; stroke-width: 22.705; fill: rgb(64, 81, 248);"
        width="499.544" x="-0.213"
        y="0.227"/>
  <path class="b"
        d="M 137.274 143.575 C 106.735 143.53 87.614 176.567 102.852 203.044 C 118.087 229.495 156.257 229.542 171.561 203.111 C 175.056 197.07 176.897 190.214 176.897 183.221 C 176.897 161.331 159.162 143.598 137.274 143.575 Z"
        style="opacity: 0.9; stroke-width: 22.705;"/>
  <path class="b"
        d="M 362.136 143.575 C 331.596 143.484 312.433 176.499 327.622 202.976 C 342.813 229.472 380.984 229.587 396.333 203.18 C 399.854 197.117 401.692 190.236 401.692 183.221 C 401.692 161.376 384.003 143.642 362.136 143.575 Z"
        style="opacity: 0.9; stroke-width: 22.705;"/>
  <path class="c"
        d="M 499.329 294.004 C 436.59 387.942 330.596 443.754 217.633 442.301 C 91.792 442.301 68.608 419.595 10.049 384.877 C 34.936 453.814 100.353 499.75 173.626 499.773 L 325.487 499.773 C 421.492 499.773 499.329 421.932 499.329 325.932 L 499.329 294.004 Z"
        style="opacity: 0.9; stroke-width: 22.705; fill: rgb(48, 61, 231);"/>
  <path class="b"
        d="M 311.751 260.989 L 311.57 260.989 C 307.574 260.174 303.599 262.399 302.169 266.213 C 299.104 274.274 292.383 286.649 279.871 286.649 C 264.316 286.649 257.708 268.848 257.46 268.12 C 255.369 262.057 247.513 260.512 243.29 265.373 C 242.496 266.28 241.904 267.37 241.564 268.55 C 238.181 279.268 228.28 286.603 217.043 286.718 C 206.983 286.718 200.397 274.182 197.172 266.008 C 195.653 262.171 191.519 260.035 187.5 261.035 L 194.833 259.197 L 187.5 261.035 L 186.773 261.217 L 187.319 261.081 C 182.458 262.284 179.804 267.508 181.666 272.162 C 186.387 283.992 197.15 303.382 217.043 303.382 C 229.758 303.564 241.837 297.796 249.717 287.806 C 256.711 297.503 267.903 303.27 279.848 303.382 C 297.877 302.067 313.068 289.485 317.769 272.049 C 319.608 267.303 316.747 262.012 311.751 260.989 Z"
        style="opacity: 0.9; stroke-width: 22.705;"/>
</svg>
